<svg xmlns="http://www.w3.org/2000/svg" viewBox="0 0 400 350" fill="none">
  <!-- Left branch -->
  <g stroke="#8E1F2D" stroke-width="3" fill="none" stroke-linecap="round">
    <path d="M120 180 Q100 150 85 120 Q70 90 75 60"/>
    <path d="M85 120 Q65 115 55 100"/>
    <path d="M80 95 Q60 85 50 70"/>
    <path d="M90 75 Q75 60 65 45"/>
    <path d="M100 150 Q80 145 65 130"/>
    <path d="M105 135 Q85 130 70 115"/>
  </g>
  
  <!-- Right branch -->
  <g stroke="#8E1F2D" stroke-width="3" fill="none" stroke-linecap="round">
    <path d="M280 180 Q300 150 315 120 Q330 90 325 60"/>
    <path d="M315 120 Q335 115 345 100"/>
    <path d="M320 95 Q340 85 350 70"/>
    <path d="M310 75 Q325 60 335 45"/>
    <path d="M300 150 Q320 145 335 130"/>
    <path d="M295 135 Q315 130 330 115"/>
  </g>
  
  <!-- Door arch -->
  <path d="M140 200 L140 100 Q140 40 200 40 Q260 40 260 100 L260 200" 
        stroke="#8E1F2D" stroke-width="12" fill="none" stroke-linecap="round" stroke-linejoin="round"/>
  
  <!-- Text: Red Door -->
  <text x="200" y="270" text-anchor="middle" font-family="Georgia, serif" font-size="52" font-weight="600" fill="#1A1A1A" letter-spacing="2">Red Door</text>
  
  <!-- Text: ESTÚDIO DE BELEZA -->
  <text x="200" y="310" text-anchor="middle" font-family="Arial, sans-serif" font-size="18" font-weight="400" fill="#1A1A1A" letter-spacing="8">ESTÚDIO DE BELEZA</text>
</svg>
